<?xml version="1.0" encoding="UTF-8" standalone="no"?>
<svg
   xmlns:dc="http://purl.org/dc/elements/1.1/"
   xmlns:cc="http://creativecommons.org/ns#"
   xmlns:rdf="http://www.w3.org/1999/02/22-rdf-syntax-ns#"
   xmlns:svg="http://www.w3.org/2000/svg"
   xmlns="http://www.w3.org/2000/svg"
   xmlns:sodipodi="http://sodipodi.sourceforge.net/DTD/sodipodi-0.dtd"
   xmlns:inkscape="http://www.inkscape.org/namespaces/inkscape"
   inkscape:version="1.0 (6e3e5246a0, 2020-05-07)"
   sodipodi:docname="first.svg"
   id="svg660"
   version="1.1"
   viewBox="0 0 150 150"
   height="150"
   width="150">
  <metadata
     id="metadata666">
    <rdf:RDF>
      <cc:Work
         rdf:about="">
        <dc:format>image/svg+xml</dc:format>
        <dc:type
           rdf:resource="http://purl.org/dc/dcmitype/StillImage" />
        <dc:title></dc:title>
      </cc:Work>
    </rdf:RDF>
  </metadata>
  <defs
     id="defs664" />
  <sodipodi:namedview
     inkscape:current-layer="svg660"
     inkscape:window-maximized="1"
     inkscape:window-y="554"
     inkscape:window-x="67"
     inkscape:cy="75"
     inkscape:cx="75"
     inkscape:zoom="6.2133333"
     showgrid="false"
     id="namedview662"
     inkscape:window-height="1385"
     inkscape:window-width="2493"
     inkscape:pageshadow="2"
     inkscape:pageopacity="0"
     guidetolerance="10"
     gridtolerance="10"
     objecttolerance="10"
     borderopacity="1"
     bordercolor="#666666"
     pagecolor="#ffffff" />
  <path
     fill="#2d2a2b"
     d="M 113.26135,101.76422 H 40.261349 c -3.828,0 -6.943,-3.090002 -6.995,-6.905002 h 86.990001 c -0.052,3.814 -3.167,6.904002 -6.995,6.904002 M 40.261349,32.983218 h 73.000001 c 3.86,0 7,3.14 7,7 v 50.876 H 33.261349 v -50.875 c 0,-3.86 3.14,-7 7,-7 m 73.000001,-4 H 40.261349 c -6.065,0 -11,4.934 -11,11 v 54.78 c 0,6.065002 4.935,11.000002 11,11.000002 h 34.5 v 9.062 h -15.417 a 2,2 0 0 0 0,4 h 34.834 a 2,2 0 0 0 0,-4 h -15.417 v -9.062 h 34.500001 c 6.065,0 11,-4.935 11,-11.000002 v -54.78 c 0,-6.066 -4.935,-11 -11,-11"
     id="path654-6" />
  <path
     fill="#2d2a2b"
     d="m 93.024349,59.910218 -14.848,-14.85 a 1.995,1.995 0 0 0 -2.83,0 l -14.848,14.85 a 2,2 0 1 0 2.828,2.828 l 11.435,-11.435 v 25.34 a 2,2 0 1 0 4,0 v -25.339 l 11.435,11.435 c 0.39,0.39 0.902,0.586 1.414,0.586 a 2,2 0 0 0 1.414,-3.414"
     id="path656-1" />
</svg>
