<svg xmlns="http://www.w3.org/2000/svg" viewBox="0 0 285.26 72.99"><defs><style>.cls-1{fill:#fff;}</style></defs><title>Asset 1</title><g id="Layer_2" data-name="Layer 2"><g id="Layer_1-2" data-name="Layer 1"><path class="cls-1" d="M10.94,42.62c.08,2.16.24,4,2,5.17a5.11,5.11,0,0,0,2.93.84,5.69,5.69,0,0,0,2.85-.84c1.93-1.31,2.08-3.24,2.23-5.71V23.28H31.83v20c-.38,4.47-.77,6.4-1.54,8.32-1.54,3.55-5.55,7.71-14.57,7.71-1.77,0-11.4-.07-14.49-7.63A22.76,22.76,0,0,1,0,44.09V23.35H10.94Z"/><path class="cls-1" d="M36.28,23.35H49.15l5.24,8.48,4.93-8.55h12.8L60.4,40.62,72.27,58.11H59.4L54,48.79l-5.85,9.32H35.74l12.1-17.65Z"/><path class="cls-1" d="M79.74,58.27V30.14H74.81V24.66h4.93V10.87c.08-3.16.31-6.09,2.62-8.4A9.35,9.35,0,0,1,86.45.31,13.93,13.93,0,0,1,89.76,0a48.84,48.84,0,0,1,5.4.38V6.86a10.17,10.17,0,0,0-4.09-.93,6.42,6.42,0,0,0-2.93.7C85.83,8,86,10.94,86.06,13.18V24.66h8.87v5.48H86.06V58.27Z"/><path class="cls-1" d="M124.4,58.27V53a10.37,10.37,0,0,1-1.54,2,14.36,14.36,0,0,1-10.25,4,16.18,16.18,0,0,1-7.09-1.62c-8.17-4-8.71-13.25-8.71-15.64a19.88,19.88,0,0,1,3.62-11.41,15.31,15.31,0,0,1,12.41-6.24,15.1,15.1,0,0,1,9.87,3.77,18.48,18.48,0,0,1,1.69,1.62V24.66h6.09V58.27Zm-6.86-5.47c5.24-1.62,7.25-6.17,7.25-11.33a14.3,14.3,0,0,0-.69-4.78,10.63,10.63,0,0,0-10.18-7.17,10.88,10.88,0,0,0-4.39,1c-2.55,1.16-6.32,4.32-6.32,11.1,0,6.24,3.47,11.25,10.17,11.72A11,11,0,0,0,117.54,52.8Z"/><path class="cls-1" d="M163.18,32.91c-.53-.31-1.07-.69-1.61-1A16.83,16.83,0,0,0,154.24,30a11.13,11.13,0,0,0-11.33,11.41c0,6.55,4.63,11.48,11.33,11.48a12.09,12.09,0,0,0,8.94-3.77v7.32a18.88,18.88,0,0,1-9.4,2.54A17.63,17.63,0,0,1,142.53,55a17.26,17.26,0,0,1-6.09-13.26,19,19,0,0,1,4.47-11.94,17.21,17.21,0,0,1,13-5.78A19.92,19.92,0,0,1,162,25.82a4.68,4.68,0,0,1,1.15.69Z"/><path class="cls-1" d="M171,58.27v-28h-5.24V24.66H171V12.25h6.4V24.66h6.86v5.63h-6.86v28Z"/><path class="cls-1" d="M194,56.57c-7.47-4.23-8.4-12.25-8.4-14.87a18.71,18.71,0,0,1,3.78-11A17.86,17.86,0,0,1,216,29.44a17.14,17.14,0,0,1,4.7,12.26,18,18,0,0,1-1.54,7.47A17.5,17.5,0,0,1,202.69,59,18.88,18.88,0,0,1,194,56.57Zm13.57-4.39a11,11,0,0,0,6.7-10.64,11.37,11.37,0,0,0-1.69-6.32,10.69,10.69,0,0,0-9.1-5.31A12,12,0,0,0,195.6,33a11.55,11.55,0,0,0-3.47,8.55,13.49,13.49,0,0,0,1.39,5.94c2.7,4.93,7.79,5.55,9.56,5.62A11.21,11.21,0,0,0,207.55,52.18Z"/><path class="cls-1" d="M226.71,58.27V24.66h6.39v5.25a38.19,38.19,0,0,1,2.85-3c2.63-2.31,4.86-2.93,6.4-2.93a11.36,11.36,0,0,1,6,2.16l-3.16,5.7a4.49,4.49,0,0,0-1.07-.85,5.44,5.44,0,0,0-3.4-.92,6.92,6.92,0,0,0-6.47,4.32c-1.08,2.54-1.16,5.24-1.16,10.63V58.27Z"/><path class="cls-1" d="M255.74,73,265,53.49,250,24.66h7.32l5.94,11.41c1.77,3.47,3.54,6.94,5.24,10.41q2.09-4.63,4.39-9.25l5.94-12.57h6.47L262.29,73Z"/></g></g></svg>