<?xml version="1.0" encoding="UTF-8" standalone="no"?>
<svg
   xmlns:dc="http://purl.org/dc/elements/1.1/"
   xmlns:cc="http://creativecommons.org/ns#"
   xmlns:rdf="http://www.w3.org/1999/02/22-rdf-syntax-ns#"
   xmlns:svg="http://www.w3.org/2000/svg"
   xmlns="http://www.w3.org/2000/svg"
   xmlns:sodipodi="http://sodipodi.sourceforge.net/DTD/sodipodi-0.dtd"
   xmlns:inkscape="http://www.inkscape.org/namespaces/inkscape"
   inkscape:version="1.0 (6e3e5246a0, 2020-05-07)"
   sodipodi:docname="third.svg"
   id="svg516"
   version="1.1"
   viewBox="0 0 150 150"
   height="150"
   width="150">
  <metadata
     id="metadata522">
    <rdf:RDF>
      <cc:Work
         rdf:about="">
        <dc:format>image/svg+xml</dc:format>
        <dc:type
           rdf:resource="http://purl.org/dc/dcmitype/StillImage" />
        <dc:title></dc:title>
      </cc:Work>
    </rdf:RDF>
  </metadata>
  <defs
     id="defs520" />
  <sodipodi:namedview
     inkscape:current-layer="svg516"
     inkscape:window-maximized="1"
     inkscape:window-y="554"
     inkscape:window-x="67"
     inkscape:cy="75"
     inkscape:cx="75"
     inkscape:zoom="6.2133333"
     showgrid="false"
     id="namedview518"
     inkscape:window-height="1385"
     inkscape:window-width="2493"
     inkscape:pageshadow="2"
     inkscape:pageopacity="0"
     guidetolerance="10"
     gridtolerance="10"
     objecttolerance="10"
     borderopacity="1"
     bordercolor="#666666"
     pagecolor="#ffffff" />
  <path
     fill="#2d2a2b"
     d="m 74.826916,25.69347 a 2.89,2.89 0 1 1 0,5.778 2.89,2.89 0 0 1 0.001,-5.78 m 32.888004,61.32 a 2,2 0 0 0 -2,2 v 17.584 c 0,3.86 -3.14,7 -7.000004,7 H 50.938911 c -3.86,0 -7,-3.14 -7,-7 v -57.354 c 0,-3.86 3.14,-7 7,-7 h 4.73 v 5.024 h 38.316005 v -5.024 h 4.73 c 3.860004,0 7.000004,3.14 7.000004,7 v 13.654 a 2,2 0 0 0 4,0 v -13.654 c 0,-6.066 -4.934,-11 -11.000004,-11 h -4.73 v -5.025 h -8.43 c 0,-5.924 -4.803,-10.727 -10.728,-10.727 -5.925,0 -10.728005,4.804 -10.728005,10.727 h -8.43 v 5.025 h -4.73 c -6.066,0 -11,4.934 -11,11 v 57.355 c 0,6.066 4.934,11 11,11 h 47.776005 c 6.066004,0 11.000004,-4.934 11.000004,-11 v -17.583 a 2,2 0 0 0 -2,-2"
     id="path510-6" />
  <path
     fill="#2d2a2b"
     d="m 60.629911,59.28047 a 1.498,1.498 0 0 0 -2.08,0.416 l -4.27,6.405 -3.177,-3.404 a 1.5,1.5 0 0 0 -2.193,2.047 l 4.47,4.79 a 1.498,1.498 0 0 0 1.219,0.472 1.504,1.504 0 0 0 1.126,-0.663 l 5.32,-7.983 a 1.5,1.5 0 0 0 -0.415,-2.08 m 40.517009,2.356 a 1.5,1.5 0 0 0 -1.500004,-1.5 h -31.93 a 1.5,1.5 0 1 0 0,3 h 31.93 a 1.5,1.5 0 0 0 1.500004,-1.5 m -33.430004,7.565 h 21.394 a 1.5,1.5 0 1 0 0,-3 h -21.394 a 1.5,1.5 0 1 0 0,3 m -7.087005,7.47 a 1.498,1.498 0 0 0 -2.08,0.416 l -4.27,6.405 -3.177,-3.403 a 1.5,1.5 0 1 0 -2.193,2.047 l 4.47,4.789 a 1.498,1.498 0 0 0 1.219,0.472 1.504,1.504 0 0 0 1.126,-0.663 l 5.32,-7.983 a 1.5,1.5 0 0 0 -0.415,-2.08 m 33.504005,2.355 a 1.5,1.5 0 0 0 -1.5,-1.5 h -24.917 a 1.5,1.5 0 0 0 0,3 h 24.917 a 1.5,1.5 0 0 0 1.5,-1.5 m -6.346,6.067 a 1.5,1.5 0 0 0 -1.5,-1.5 h -18.57 a 1.5,1.5 0 1 0 0,3 h 18.57 a 1.5,1.5 0 0 0 1.5,-1.5 m -27.158005,8.969996 a 1.498,1.498 0 0 0 -2.08,0.416 l -4.27,6.404004 -3.177,-3.404004 a 1.5,1.5 0 1 0 -2.193,2.047 l 4.47,4.790004 a 1.498,1.498 0 0 0 1.219,0.473 1.504,1.504 0 0 0 1.126,-0.663 l 5.32,-7.983004 a 1.5,1.5 0 0 0 -0.415,-2.08 m 21.046005,2.355 a 1.5,1.5 0 0 0 -1.5,-1.5 h -12.459 a 1.5,1.5 0 1 0 0,3 h 12.458 a 1.5,1.5 0 0 0 1.5,-1.5 m -13.958,4.565004 a 1.5,1.5 0 1 0 0,3 h 7.11 a 1.5,1.5 0 1 0 0,-3 z m 52.715004,-36.111 -2.628,-2.421 1.747,-1.897 2.629,2.421 z m -27.128004,26.814 0.546,-1.874 0.638,0.588 0.638,0.588 z m 4.53,-2.282 -2.627,-2.421 20.565004,-22.326 2.628,2.421 -20.564004,22.326 z m 27.964004,-26.578 a 1.5,1.5 0 0 0 -0.483,-1.042 l -4.835,-4.453 a 1.5,1.5 0 0 0 -2.12,0.087 l -3.78,4.103 v 0.002 l -22.596004,24.531 c -0.07,0.075 -0.13,0.156 -0.181,0.242 a 1.543,1.543 0 0 0 -0.14,0.317 c -0.004,0.013 -0.012,0.024 -0.016,0.037 l -2.07,7.098 a 1.498,1.498 0 0 0 1.977,1.819996 l 6.904,-2.643996 c 0.008,-0.003 0.014,-0.008 0.02,-0.011 0.11,-0.044 0.216,-0.099 0.314,-0.169 0.01,-0.007 0.017,-0.016 0.027,-0.023 a 1.46,1.46 0 0 0 0.206,-0.181 l 22.597004,-24.532 0.003,-0.003 3.777,-4.101 a 1.5,1.5 0 0 0 0.396,-1.078 z"
     id="path512-2" />
</svg>
